<?xml version="1.0" encoding="UTF-8"?>
<!DOCTYPE svg PUBLIC "-//W3C//DTD SVG 1.1//EN" "http://www.w3.org/Graphics/SVG/1.1/DTD/svg11.dtd">
<svg version="1.2" width="304.27mm" height="26.46mm" viewBox="0 0 30427 2646" preserveAspectRatio="xMidYMid" fill-rule="evenodd" stroke-width="28.222" stroke-linejoin="round" xmlns="http://www.w3.org/2000/svg" xmlns:ooo="http://xml.openoffice.org/svg/export" xmlns:xlink="http://www.w3.org/1999/xlink" xmlns:presentation="http://sun.com/xmlns/staroffice/presentation" xmlns:smil="http://www.w3.org/2001/SMIL20/" xmlns:anim="urn:oasis:names:tc:opendocument:xmlns:animation:1.0" xml:space="preserve">
 <defs class="ClipPathGroup">
  <clipPath id="presentation_clip_path" clipPathUnits="userSpaceOnUse">
   <rect x="0" y="0" width="30427" height="2646"/>
  </clipPath>
  <clipPath id="presentation_clip_path_shrink" clipPathUnits="userSpaceOnUse">
   <rect x="30" y="2" width="30367" height="2641"/>
  </clipPath>
 </defs>
 <defs class="TextShapeIndex">
  <g ooo:slide="id1" ooo:id-list="id3 id4"/>
 </defs>
 <defs class="EmbeddedBulletChars">
  <g id="bullet-char-template-57356" transform="scale(0.00048828125,-0.00048828125)">
   <path d="M 580,1141 L 1163,571 580,0 -4,571 580,1141 Z"/>
  </g>
  <g id="bullet-char-template-57354" transform="scale(0.00048828125,-0.00048828125)">
   <path d="M 8,1128 L 1137,1128 1137,0 8,0 8,1128 Z"/>
  </g>
  <g id="bullet-char-template-10146" transform="scale(0.00048828125,-0.00048828125)">
   <path d="M 174,0 L 602,739 174,1481 1456,739 174,0 Z M 1358,739 L 309,1346 659,739 1358,739 Z"/>
  </g>
  <g id="bullet-char-template-10132" transform="scale(0.00048828125,-0.00048828125)">
   <path d="M 2015,739 L 1276,0 717,0 1260,543 174,543 174,936 1260,936 717,1481 1274,1481 2015,739 Z"/>
  </g>
  <g id="bullet-char-template-10007" transform="scale(0.00048828125,-0.00048828125)">
   <path d="M 0,-2 C -7,14 -16,27 -25,37 L 356,567 C 262,823 215,952 215,954 215,979 228,992 255,992 264,992 276,990 289,987 310,991 331,999 354,1012 L 381,999 492,748 772,1049 836,1024 860,1049 C 881,1039 901,1025 922,1006 886,937 835,863 770,784 769,783 710,716 594,584 L 774,223 C 774,196 753,168 711,139 L 727,119 C 717,90 699,76 672,76 641,76 570,178 457,381 L 164,-76 C 142,-110 111,-127 72,-127 30,-127 9,-110 8,-76 1,-67 -2,-52 -2,-32 -2,-23 -1,-13 0,-2 Z"/>
  </g>
  <g id="bullet-char-template-10004" transform="scale(0.00048828125,-0.00048828125)">
   <path d="M 285,-33 C 182,-33 111,30 74,156 52,228 41,333 41,471 41,549 55,616 82,672 116,743 169,778 240,778 293,778 328,747 346,684 L 369,508 C 377,444 397,411 428,410 L 1163,1116 C 1174,1127 1196,1133 1229,1133 1271,1133 1292,1118 1292,1087 L 1292,965 C 1292,929 1282,901 1262,881 L 442,47 C 390,-6 338,-33 285,-33 Z"/>
  </g>
  <g id="bullet-char-template-9679" transform="scale(0.00048828125,-0.00048828125)">
   <path d="M 813,0 C 632,0 489,54 383,161 276,268 223,411 223,592 223,773 276,916 383,1023 489,1130 632,1184 813,1184 992,1184 1136,1130 1245,1023 1353,916 1407,772 1407,592 1407,412 1353,268 1245,161 1136,54 992,0 813,0 Z"/>
  </g>
  <g id="bullet-char-template-8226" transform="scale(0.00048828125,-0.00048828125)">
   <path d="M 346,457 C 273,457 209,483 155,535 101,586 74,649 74,723 74,796 101,859 155,911 209,963 273,989 346,989 419,989 480,963 531,910 582,859 608,796 608,723 608,648 583,586 532,535 482,483 420,457 346,457 Z"/>
  </g>
  <g id="bullet-char-template-8211" transform="scale(0.00048828125,-0.00048828125)">
   <path d="M -4,459 L 1135,459 1135,606 -4,606 -4,459 Z"/>
  </g>
  <g id="bullet-char-template-61548" transform="scale(0.00048828125,-0.00048828125)">
   <path d="M 173,740 C 173,903 231,1043 346,1159 462,1274 601,1332 765,1332 928,1332 1067,1274 1183,1159 1299,1043 1357,903 1357,740 1357,577 1299,437 1183,322 1067,206 928,148 765,148 601,148 462,206 346,322 231,437 173,577 173,740 Z"/>
  </g>
 </defs>
 <defs class="TextEmbeddedBitmaps"/>
 <g>
  <g id="id2" class="Master_Slide">
   <g id="bg-id2" class="Background"/>
   <g id="bo-id2" class="BackgroundObjects"/>
  </g>
 </g>
 <g class="SlideGroup">
  <g>
   <g id="container-id1">
    <g id="id1" class="Slide" clip-path="url(#presentation_clip_path)">
     <g class="Page">
      <g class="Graphic">
       <title>Layer 1
       </title>
       <g id="id3">
        <rect class="BoundingBox" stroke="none" fill="none" x="0" y="0" width="30427" height="2646"/>
        <defs>
         <clipPath id="clip_path_1" clipPathUnits="userSpaceOnUse">
          <path d="M 0,0 L 30426,0 30426,2645 0,2645 0,0 Z"/>
         </clipPath>
        </defs>
        <g clip-path="url(#clip_path_1)">
         <path fill="rgb(0,75,147)" stroke="none" d="M 0,741 L 559,741 1118,1852 1118,741 559,741 0,1852 0,741 0,741 Z"/>
         <path fill="rgb(27,25,24)" stroke="none" d="M 561,1104 C 581,1187 618,1274 669,1356 723,1442 773,1500 777,1605 783,1743 714,1850 559,1847 405,1845 342,1720 343,1615 344,1511 402,1443 455,1358 L 455,1358 C 460,1350 464,1343 468,1335 512,1259 540,1189 561,1104 L 561,1104 Z"/>
         <path fill="rgb(0,75,147)" stroke="none" d="M 1872,1361 L 1872,1496 1890,1496 C 1928,1496 1963,1496 1986,1486 2007,1478 2020,1461 2020,1427 L 2020,1427 C 2020,1361 1961,1361 1890,1361 L 1872,1361 1872,1361 1872,1361 Z M 9076,911 C 9036,1012 8888,1396 8786,1661 L 8778,1681 9015,1681 9019,1672 9067,1553 9312,1553 9357,1671 9360,1681 9731,1681 9739,1681 9743,1675 9901,1452 10044,1674 10049,1681 10318,1681 10302,1658 10033,1270 10265,934 10281,911 10006,911 10001,918 9901,1087 9801,918 9797,911 9522,911 9538,934 9769,1270 9554,1563 9307,911 9076,911 9076,911 Z M 2169,911 L 1649,911 1649,1681 1960,1681 1960,1681 C 2043,1681 2114,1660 2165,1619 2216,1577 2246,1515 2246,1433 L 2246,1433 2246,1432 2246,1432 C 2246,1348 2220,1284 2172,1240 2124,1198 2055,1176 1967,1176 L 1967,1176 1873,1176 1873,1104 2169,1104 2169,911 2169,911 2169,911 Z M 2756,1104 L 2541,1104 2541,1197 2759,1197 2759,1391 2541,1391 2541,1488 2771,1488 2771,1681 2318,1681 2318,911 2771,911 2771,1104 2756,1104 2756,1104 2756,1104 Z M 3302,1104 L 3153,1104 C 3153,1310 3151,1456 3117,1552 3081,1655 3010,1701 2871,1701 L 2857,1701 2856,1688 2836,1525 2834,1508 2851,1508 C 2892,1508 2913,1500 2925,1432 2938,1354 2939,1205 2939,926 L 2939,911 3525,911 3525,1681 3302,1681 3302,1104 3302,1104 Z M 3862,1196 L 4110,1196 4110,911 4334,911 4334,1681 4110,1681 4110,1378 3862,1378 3862,1681 3638,1681 3638,911 3862,911 3862,1196 3862,1196 Z M 4885,1104 L 4670,1104 4670,1197 4888,1197 4888,1391 4670,1391 4670,1488 4900,1488 4900,1681 4447,1681 4447,911 4900,911 4900,1104 4885,1104 4885,1104 4885,1104 Z M 5339,1429 L 5339,1162 C 5302,1165 5268,1178 5242,1198 5214,1220 5196,1250 5196,1283 L 5196,1283 5196,1284 5196,1284 5196,1284 C 5196,1284 5196,1284 5196,1284 5196,1310 5202,1331 5215,1354 5223,1367 5231,1378 5243,1388 L 5243,1388 C 5269,1412 5303,1426 5339,1429 L 5339,1429 5339,1429 Z M 5563,1162 L 5563,1429 C 5600,1426 5633,1412 5659,1388 L 5659,1388 C 5688,1362 5706,1326 5706,1283 L 5706,1283 5706,1283 5706,1283 C 5706,1250 5688,1220 5660,1198 5634,1178 5600,1165 5563,1162 L 5563,1162 5563,1162 Z M 5339,1666 L 5339,1631 C 5240,1628 5149,1595 5081,1538 5010,1478 4965,1391 4965,1282 L 4965,1282 4965,1282 4965,1282 C 4965,1181 5013,1101 5087,1045 5155,993 5246,964 5339,961 L 5339,911 5563,911 5563,961 C 5656,964 5747,993 5815,1045 5889,1100 5937,1181 5937,1282 L 5937,1282 5937,1282 5937,1282 C 5937,1391 5892,1478 5821,1538 5753,1595 5662,1628 5563,1631 L 5563,1681 5339,1681 5339,1666 5339,1666 Z M 6301,1104 L 6301,1681 6077,1681 6077,1104 5917,1104 5917,911 6460,911 6460,1104 6301,1104 6301,1104 6301,1104 Z M 6955,1104 L 6741,1104 6741,1197 6958,1197 6958,1391 6741,1391 6741,1488 6970,1488 6970,1681 6517,1681 6517,911 6970,911 6970,1104 6955,1104 6955,1104 6955,1104 Z M 7621,943 L 7621,1220 7593,1183 7593,1183 C 7578,1162 7561,1148 7539,1135 7534,1132 7530,1130 7524,1127 L 7524,1127 C 7496,1114 7469,1108 7437,1108 7437,1108 7436,1108 7436,1108 L 7436,1108 7436,1108 7436,1108 C 7381,1108 7336,1129 7304,1162 7271,1197 7253,1244 7253,1298 L 7253,1298 7253,1298 7253,1298 C 7253,1352 7272,1399 7304,1432 7336,1465 7383,1484 7439,1484 L 7439,1484 7439,1484 C 7481,1484 7523,1470 7558,1445 L 7558,1445 C 7572,1435 7583,1425 7594,1411 L 7594,1411 7594,1411 7621,1381 7621,1663 7610,1666 7606,1667 7606,1667 C 7543,1687 7496,1701 7435,1701 7358,1701 7283,1680 7218,1641 L 7218,1641 7218,1641 C 7205,1633 7193,1626 7181,1617 L 7181,1617 C 7168,1607 7158,1599 7146,1588 L 7146,1588 7146,1588 7146,1588 C 7115,1561 7093,1533 7072,1498 7064,1484 7058,1471 7052,1456 7032,1408 7022,1354 7022,1297 L 7022,1297 7022,1297 C 7022,1221 7042,1148 7081,1085 L 7081,1085 C 7097,1058 7114,1038 7135,1016 L 7135,1015 7135,1015 7135,1015 7135,1015 C 7163,987 7190,967 7224,947 7231,943 7238,939 7245,935 7253,931 7262,928 7270,924 7320,903 7374,891 7429,891 L 7429,891 7429,891 C 7461,891 7492,895 7522,901 7552,908 7582,917 7611,929 L 7621,933 7621,943 7621,943 7621,943 Z M 8053,1104 L 8053,1681 7829,1681 7829,1104 7670,1104 7670,911 8212,911 8212,1104 8053,1104 8053,1104 8053,1104 Z M 8493,1096 L 8493,1250 8510,1250 C 8544,1250 8577,1250 8600,1240 8620,1232 8634,1213 8634,1175 8634,1136 8621,1116 8601,1107 8579,1096 8546,1096 8510,1096 L 8493,1096 8493,1096 Z M 8269,1666 L 8269,911 8581,911 C 8664,911 8734,930 8785,972 8836,1015 8865,1079 8865,1169 L 8865,1169 8865,1169 C 8865,1261 8840,1328 8792,1372 8744,1415 8675,1436 8587,1436 L 8587,1436 8493,1436 8493,1681 8269,1681 8269,1666 8269,1666 Z M 9249,1375 L 9190,1199 9131,1375 9249,1375 9249,1375 Z"/>
        </g>
       </g>
      </g>
      <g class="com.sun.star.drawing.ClosedBezierShape">
       <g id="id4">
        <rect class="BoundingBox" stroke="none" fill="none" x="24350" y="422" width="5823" height="1775"/>
        <path fill="rgb(0,75,148)" stroke="none" d="M 29502,989 C 29438,1009 29362,1029 29336,1030 29332,1022 29328,1009 29332,995 29337,981 29351,966 29360,963 29369,953 29367,937 29356,930 29347,921 29328,908 29315,918 29290,968 29212,1051 29162,1062 29133,1070 29126,1057 29134,1030 29149,981 29188,947 29227,917 29243,904 29255,904 29258,896 29258,885 29248,881 29241,876 29231,872 29223,868 29214,874 29182,895 29101,987 29091,1010 29085,1025 29085,1039 29088,1050 29072,1055 29017,1073 29009,1052 28999,1018 29071,934 29090,911 29102,876 29080,901 29073,871 29070,854 29056,838 29040,834 28984,825 28903,936 28886,976 28877,999 28879,1018 28904,1029 28930,1039 28946,1027 28964,1025 28968,1040 28964,1075 28994,1082 29012,1084 29066,1080 29090,1071 29092,1070 29094,1068 29095,1066 29105,1081 29121,1089 29135,1089 29187,1092 29259,1028 29282,1000 29287,1013 29292,1021 29297,1029 29307,1043 29313,1053 29325,1058 29338,1061 29357,1060 29375,1058 29399,1054 29484,1032 29534,1006 29551,997 29603,948 29613,957 29602,948 29556,971 29502,989 Z M 29502,989 L 29502,989 Z M 26771,1272 C 26732,1294 26660,1345 26615,1338 26586,1319 26624,1256 26661,1211 26690,1175 26726,1136 26760,1129 26768,1128 26785,1130 26785,1140 26764,1185 26749,1178 26739,1212 26740,1221 26752,1234 26759,1240 26776,1253 26795,1230 26807,1193 26815,1168 26818,1148 26808,1135 26796,1118 26782,1114 26766,1112 26707,1105 26634,1166 26610,1193 26603,1200 26597,1209 26592,1217 26581,1226 26571,1235 26562,1242 26540,1261 26521,1278 26508,1278 26506,1255 26503,1222 26529,1203 26527,1185 26522,1176 26507,1180 26483,1186 26490,1217 26465,1210 26464,1206 26462,1203 26462,1200 26472,1170 26464,1142 26451,1133 26408,1106 26336,1157 26325,1176 26312,1196 26332,1199 26356,1189 26371,1182 26384,1165 26400,1160 26433,1148 26426,1187 26403,1223 26355,1280 26296,1347 26287,1358 26284,1361 26273,1370 26260,1381 26257,1379 26250,1388 26242,1393 26229,1400 26161,1465 26126,1382 26120,1364 26242,1277 26261,1264 26278,1253 26285,1229 26262,1206 26249,1193 26235,1179 26215,1180 26177,1205 26157,1222 26142,1240 26127,1259 26108,1292 26093,1328 26085,1354 26059,1369 26024,1383 26001,1393 25980,1397 25961,1395 25959,1367 25983,1347 25992,1331 25997,1321 26002,1317 25987,1305 25977,1298 25965,1291 25952,1293 25935,1294 25917,1302 25902,1311 25888,1321 25869,1337 25850,1348 25840,1355 25833,1366 25820,1360 25835,1337 25870,1278 25880,1250 25882,1241 25891,1219 25875,1210 25866,1209 25852,1202 25844,1207 25844,1213 25838,1242 25824,1271 25803,1310 25766,1402 25728,1422 25682,1447 25620,1466 25570,1480 25551,1487 25476,1506 25514,1459 25550,1417 25632,1399 25640,1344 25642,1323 25622,1317 25603,1313 25569,1300 25530,1329 25509,1352 25486,1378 25465,1418 25469,1460 25450,1485 25424,1493 25403,1506 25389,1515 25351,1516 25352,1490 25354,1469 25396,1453 25407,1433 25415,1420 25381,1399 25367,1390 25341,1401 25319,1415 25293,1427 25285,1406 25327,1398 25323,1375 25309,1354 25293,1351 25280,1360 25259,1376 25242,1415 25225,1427 25186,1455 25179,1453 25136,1472 25117,1469 25130,1461 25134,1449 25141,1419 25089,1383 25065,1409 25050,1426 25037,1456 25034,1466 25030,1480 25044,1495 25060,1521 25066,1539 25001,1594 24983,1577 24977,1558 24980,1537 24982,1514 24984,1492 24995,1460 25006,1436 25013,1421 25036,1396 25066,1394 25040,1386 25024,1382 25011,1385 24985,1393 24971,1414 24961,1439 24939,1496 24944,1547 24947,1568 24949,1590 24954,1611 24973,1624 25036,1653 25081,1562 25096,1531 25092,1521 25100,1513 25116,1504 25133,1495 25208,1465 25209,1468 25211,1478 25162,1528 25195,1544 25229,1545 25225,1551 25232,1520 25239,1491 25253,1456 25279,1449 25290,1447 25317,1453 25322,1465 25302,1490 25308,1549 25343,1553 25396,1561 25443,1495 25472,1480 25471,1511 25523,1533 25556,1523 25609,1509 25681,1476 25725,1445 25691,1502 25564,1661 25527,1714 25517,1729 25507,1741 25499,1754 25124,1849 24739,1964 24350,2101 L 24350,2195 C 24726,2042 25098,1916 25461,1813 25437,1855 25426,1890 25434,1918 25433,1945 25458,1943 25476,1954 25484,1946 25503,1910 25524,1862 25534,1838 25545,1812 25557,1786 26387,1558 27168,1445 27836,1396 27766,1478 27719,1578 27743,1691 27759,1759 27810,1789 27860,1792 27933,1795 27986,1760 28033,1706 28122,1604 28202,1488 28281,1371 28613,1358 28908,1360 29155,1368 29503,1380 29852,1425 30172,1521 L 30171,1475 C 29836,1391 29482,1359 29139,1343 28899,1331 28617,1329 28300,1341 L 28312,1324 C 28369,1240 28419,1149 28476,1064 28500,1029 28524,994 28554,963 28571,944 28591,928 28615,915 L 28634,937 C 28649,939 28645,933 28643,923 28650,911 28663,902 28677,910 28717,934 28771,915 28843,899 28800,927 28738,945 28694,980 28646,1020 28642,1060 28649,1084 28655,1106 28667,1117 28681,1125 28713,1140 28760,1124 28787,1097 28798,1082 28825,1094 28819,1070 28815,1070 28818,1076 28816,1079 28803,1080 28781,1081 28761,1089 28742,1095 28701,1119 28682,1094 28677,1044 28792,973 28835,958 28870,945 28881,933 28896,916 28903,894 28868,854 28859,857 28843,861 28828,860 28811,871 28765,896 28725,870 28685,866 28657,862 28600,878 28608,913 28579,888 28546,884 28520,918 28467,973 28443,1014 28379,1042 28365,1051 28333,1056 28319,1049 28315,1020 28349,994 28385,990 28395,979 28386,971 28378,964 28366,953 28371,947 28353,953 28310,967 28261,1006 28226,1033 28203,1051 28184,1067 28170,1067 28169,1043 28168,1011 28195,992 28193,974 28188,965 28173,969 28149,973 28155,1004 28130,997 28136,976 28149,985 28149,961 28132,936 28127,951 28109,962 28039,1004 27993,1039 27894,1089 27855,1109 27781,1157 27737,1148 27708,1128 27749,1066 27787,1023 27818,988 27856,951 27890,945 27898,945 27915,947 27915,958 27891,1001 27876,993 27866,1027 27866,1036 27878,1049 27884,1056 27901,1070 27920,1048 27934,1012 27943,987 27947,966 27937,953 27927,936 27913,931 27897,929 27838,919 27762,977 27737,1003 27708,1034 27686,1081 27686,1110 27687,1137 27716,1160 27735,1170 27759,1182 27777,1174 27803,1167 27856,1154 27912,1119 27944,1100 L 28030,1052 C 28027,1061 27981,1101 27969,1114 27953,1128 27936,1125 27939,1143 27945,1156 27947,1178 27963,1177 27979,1173 28031,1108 28045,1095 28068,1074 28096,1039 28127,1031 28116,1043 28107,1088 28094,1098 28085,1114 28087,1119 28097,1132 28110,1147 28119,1152 28133,1148 28149,1146 28161,1126 28168,1118 28195,1092 28254,1025 28281,1022 28273,1038 28265,1072 28265,1086 28264,1101 28267,1119 28288,1124 28166,1153 28042,1213 27940,1296 27914,1317 27887,1341 27863,1366 27196,1416 26416,1527 25584,1733 25647,1611 25733,1482 25819,1398 25859,1359 25901,1334 25933,1351 25929,1367 25893,1422 25934,1442 25978,1464 26046,1400 26084,1382 26082,1422 26135,1447 26171,1448 26177,1448 26182,1447 26187,1446 26188,1446 26188,1446 26189,1446 26272,1421 26367,1330 26384,1313 26406,1289 26433,1254 26463,1245 26453,1257 26446,1302 26433,1313 26424,1329 26427,1334 26438,1347 26451,1361 26460,1366 26474,1362 26491,1359 26501,1338 26508,1330 26523,1315 26547,1285 26570,1262 26565,1277 26562,1291 26563,1302 26565,1329 26595,1351 26615,1360 26639,1371 26657,1362 26682,1355 26735,1339 26790,1301 26821,1281 L 26845,1266 C 26847,1274 26854,1281 26865,1286 26892,1296 26908,1284 26926,1282 26930,1297 26925,1332 26955,1339 26974,1342 27027,1337 27052,1329 27060,1321 27063,1311 27052,1306 27041,1310 26979,1332 26971,1309 26961,1275 27032,1191 27051,1168 27064,1133 27041,1158 27035,1128 27031,1111 27017,1095 27002,1091 26950,1083 26877,1176 26853,1222 26829,1238 26803,1254 26771,1272 Z M 26771,1272 L 26771,1272 Z M 26890,1238 L 26904,1230 26905,1230 26912,1201 C 26933,1175 26961,1152 26988,1138 26989,1145 26989,1154 26985,1162 26975,1184 26944,1214 26935,1249 26916,1272 26905,1272 26886,1254 L 26886,1253 C 26886,1250 26888,1245 26890,1238 Z M 26890,1238 L 26890,1238 Z M 26230,1221 C 26218,1238 26179,1281 26164,1292 26130,1262 26199,1222 26230,1221 Z M 26230,1221 L 26230,1221 Z M 25602,1340 C 25591,1367 25554,1407 25518,1426 25520,1398 25568,1350 25602,1340 Z M 25602,1340 L 25602,1340 Z M 25067,1479 C 25073,1464 25072,1453 25086,1450 25084,1469 25087,1481 25067,1479 Z M 25067,1479 L 25067,1479 Z M 27393,1119 C 27377,1152 27304,1191 27286,1217 27271,1240 27315,1242 27332,1244 27365,1250 27390,1234 27390,1227 27411,1249 27373,1267 27339,1265 27310,1265 27277,1257 27257,1235 27220,1254 27143,1325 27079,1294 27066,1276 27044,1255 27063,1233 27076,1223 27091,1223 27103,1232 27113,1243 27113,1247 27105,1257 L 27101,1260 C 27150,1253 27192,1218 27234,1196 27270,1173 27235,1149 27253,1125 27258,1117 27265,1107 27274,1100 27297,1081 27329,1072 27345,1073 27354,1078 27361,1082 27368,1087 27379,1095 27387,1105 27393,1119 Z M 27393,1119 L 27393,1119 Z M 27283,1168 C 27314,1145 27329,1145 27338,1113 27304,1114 27292,1139 27283,1168 Z M 27283,1168 L 27283,1168 Z M 27940,1361 C 28043,1353 28144,1348 28241,1343 28292,1270 28345,1197 28395,1122 28341,1117 28246,1170 28196,1194 28109,1235 28015,1290 27940,1361 Z M 27940,1361 L 27940,1361 Z M 28220,1373 C 28120,1378 28016,1383 27909,1391 27837,1468 27788,1561 27791,1674 27792,1733 27818,1775 27898,1747 27971,1723 28035,1649 28093,1568 28140,1501 28181,1429 28220,1373 Z M 28220,1373 L 28220,1373 Z M 26695,469 C 26674,518 26556,683 26519,742 26551,700 26629,664 26753,595 26774,571 26830,476 26855,470 26878,457 26910,495 26917,506 26893,515 26886,532 26874,543 26826,595 26775,648 26737,707 26711,750 26690,796 26682,839 26678,863 26674,866 26703,865 26757,867 26846,810 26876,770 26894,734 26917,693 26945,670 26978,644 27002,640 27031,654 27043,660 27058,671 27056,691 27064,689 27083,707 27075,727 27057,741 27042,755 27032,775 26989,861 27119,807 27131,772 27180,768 27148,797 27118,815 27094,828 27063,843 27036,847 27008,846 26983,844 26975,812 26950,822 26922,853 26890,840 26872,834 26879,811 26864,805 26841,816 26839,828 26797,853 26756,878 26712,902 26672,898 26631,894 26635,837 26643,807 26664,740 26705,689 26719,657 26645,667 26537,739 26484,814 26457,853 26422,902 26380,931 26367,939 26363,939 26358,933 26351,927 26344,912 26346,899 26351,877 26375,858 26392,844 26460,784 26472,764 26529,675 26580,593 26625,517 26664,424 26701,411 26698,464 26695,469 Z M 26695,469 L 26695,469 Z M 27033,675 C 27025,653 27003,662 26989,675 26957,700 26927,751 26912,794 26908,809 26905,825 26927,819 26980,803 27024,716 27033,675 Z M 27033,675 L 27033,675 Z M 28529,528 C 28539,584 28490,568 28450,623 L 28441,591 C 28472,570 28521,563 28525,521 28531,519 28526,523 28529,528 Z M 28529,528 L 28529,528 Z M 28271,549 C 28266,538 28259,530 28250,525 28231,516 28216,518 28199,526 28191,529 28143,564 28101,602 28031,668 28025,664 28025,664 28019,654 28051,579 28067,546 28075,530 28062,528 28048,524 27950,496 27893,577 27872,608 27850,642 27840,670 27843,709 27831,720 27819,735 27803,744 27783,756 27761,762 27730,752 27726,744 27736,727 27740,720 27763,670 27804,626 27843,587 27860,570 27844,568 27828,557 27816,548 27811,552 27799,563 27764,595 27730,643 27702,673 27685,691 27610,729 27597,704 27625,669 27653,626 27697,601 27694,591 27685,583 27674,579 27653,569 27654,576 27638,595 27608,632 27577,663 27538,691 27501,718 27458,742 27422,762 27389,751 27486,634 27499,623 27514,610 27520,608 27524,601 27523,585 27505,567 27492,573 27469,607 27438,638 27414,673 27396,700 27375,740 27373,773 27372,791 27383,799 27378,802 27398,813 27418,809 27437,801 27454,791 27501,760 27536,738 27543,734 27549,729 27554,727 27551,740 27555,749 27562,756 27605,785 27672,727 27688,723 27682,734 27679,748 27680,754 27679,767 27683,780 27708,786 27776,802 27825,740 27855,728 27863,729 27872,733 27878,732 27915,736 27955,705 27979,684 27981,696 27987,703 27992,711 28020,719 28036,713 28056,695 28101,655 28148,559 28192,571 28183,590 28167,610 28154,632 28135,661 28122,692 28144,724 28171,745 28202,741 28230,731 28289,711 28382,670 28432,628 28440,614 28436,609 28433,594 28369,637 28289,666 28216,691 28164,711 28145,699 28188,651 28205,631 28229,606 28250,584 28260,574 28268,565 28271,549 Z M 28271,549 L 28271,549 Z M 27902,627 C 27922,587 27954,549 28000,543 27997,565 28004,592 27987,616 27972,638 27944,674 27917,691 27875,716 27892,645 27902,627 Z M 27902,627 L 27902,627 Z M 28451,1033 C 28440,1034 28397,1071 28385,1078 28353,1094 28317,1111 28295,1122 28326,1113 28400,1095 28433,1067 28445,1057 28451,1046 28451,1033 Z M 28451,1033 L 28451,1033 Z M 29026,881 C 28993,898 28958,929 28938,961 28935,967 28924,989 28924,996 L 28924,998 C 28944,1015 28954,1015 28973,993 28983,957 29013,928 29023,905 29027,897 29027,888 29026,881 Z M 29026,881 L 29026,881 Z M 29397,812 C 29384,826 29369,836 29354,840 29333,847 29335,831 29340,815 29343,805 29348,795 29352,785 29331,783 29320,791 29313,804 29308,815 29297,846 29316,856 29343,872 29372,848 29395,837 29396,829 29399,821 29397,812 Z"/>
       </g>
      </g>
     </g>
    </g>
   </g>
  </g>
 </g>
</svg>