<svg width="390" height="42" fill="none" xmlns="http://www.w3.org/2000/svg"><path fill-rule="evenodd" clip-rule="evenodd" d="M0 0h21.127l21.128 42V0H21.127L0 42V0z" fill="#004B93"/><path fill-rule="evenodd" clip-rule="evenodd" d="M21.199 13.734c.766 3.13 2.147 6.42 4.1 9.539 2.037 3.254 3.904 5.442 4.073 9.4.225 5.239-2.4 9.26-8.232 9.166-5.845-.094-8.203-4.803-8.17-8.78.031-3.921 2.214-6.492 4.225-9.723a32.95 32.95 0 0 0 4.004-9.602z" fill="#1B1918"/><path fill-rule="evenodd" clip-rule="evenodd" d="M70.774 23.46v5.096h.657c1.431 0 2.747-.008 3.642-.37.775-.314 1.262-.959 1.262-2.251h.001c0-2.475-2.202-2.474-4.905-2.474h-.657zM343.028 6.426c-1.502 3.835-7.088 18.357-10.952 28.365l-.299.774h8.973l.144-.362 1.792-4.502h9.275l1.686 4.491.141.373h13.999l.297-.002.171-.241 5.955-8.441 5.426 8.42.17.264H390l-.621-.894L379.21 20.03l8.755-12.711.617-.893H378.19l-.168.28-3.791 6.408-3.79-6.407-.166-.28h-10.392l.615.892 8.748 12.7-8.14 11.077-9.322-24.67h-8.756zm-261.04 0h-19.66v29.139h11.76v-.002c3.145-.002 5.83-.788 7.74-2.35 1.931-1.58 3.06-3.934 3.063-7.04h.002v-.028h-.002c-.002-3.19-.972-5.615-2.79-7.249-1.803-1.62-4.422-2.439-7.741-2.442v-.002h-3.583v-2.72h11.211V6.427zm22.167 7.307h-8.106v3.536h8.231v7.304h-8.232v3.686h8.68v7.306H87.601V6.427h17.127v7.304h-.573zm20.645 0h-5.633c-.003 7.789-.062 13.297-1.337 16.935-1.369 3.9-4.049 5.646-9.331 5.646h-.507l-.061-.504-.753-6.17-.077-.637h.646c1.559 0 2.372-.303 2.808-2.875.5-2.947.537-8.574.537-19.13v-.57h22.155v29.137H124.8V13.733zm21.167 3.497h9.395V6.427h8.447v29.137h-8.447V24.092h-9.395v11.473h-8.448V6.427h8.448V17.23zm38.666-3.497h-8.104v3.536h8.232v7.304h-8.232v3.686h8.679v7.306h-17.127V6.427h17.127v7.304h-.575zm17.176 12.311V15.942c-1.401.108-2.694.61-3.667 1.367-1.063.826-1.744 1.96-1.745 3.199l.002-.001v.019h-.002a5.3 5.3 0 0 0 1.774 3.964l.004-.001c.966.876 2.247 1.434 3.635 1.555h-.001zm8.448-10.102v10.102c1.387-.12 2.666-.677 3.633-1.551l.002-.001c1.084-.98 1.776-2.364 1.776-3.97h-.001v-.019h.001c-.001-1.237-.679-2.366-1.741-3.192-.974-.757-2.266-1.26-3.67-1.37zm-8.448 19.051V33.66c-3.748-.114-7.2-1.346-9.751-3.497-2.7-2.28-4.4-5.582-4.401-9.677h-.003v-.022h.003c.004-3.809 1.833-6.855 4.604-8.947 2.596-1.959 6.029-3.077 9.548-3.187V6.427h8.448v1.901c3.518.109 6.948 1.226 9.545 3.185 2.774 2.09 4.606 5.141 4.608 8.953h.002v.021h-.002c-.004 4.091-1.702 7.394-4.399 9.672-2.552 2.153-6.002 3.385-9.754 3.499v1.907h-8.448v-.572zm36.332-21.26v21.832h-8.446V13.733h-6.036V6.427h20.516v7.304h-6.034zm24.736 0h-8.105v3.536h8.232v7.304h-8.232v3.686h8.678v7.306h-17.126V6.427h17.126v7.304h-.573zm25.158-6.068v10.457l-1.033-1.39a6.809 6.809 0 0 0-2.606-2.114 7.826 7.826 0 0 0-3.329-.737h.001-.028v-.001c-2.057.002-3.782.789-4.987 2.07-1.215 1.289-1.914 3.092-1.915 5.113h.003v.024h-.002c.003 2.045.706 3.805 1.929 5.046 1.224 1.24 2.982 1.98 5.089 1.98l.001-.002h.007c1.593 0 3.187-.553 4.486-1.494a7.532 7.532 0 0 0 1.365-1.261l.011-.015.007-.008 1.001-1.122v10.646l-.404.126-.146.045h-.003c-2.395.74-4.16 1.287-6.465 1.287-2.916 0-5.733-.8-8.203-2.263l.001-.003a16.94 16.94 0 0 1-1.403-.928 17.575 17.575 0 0 1-1.312-1.073l.001-.002-.011-.01a13.837 13.837 0 0 1-3.555-4.97c-.768-1.845-1.138-3.866-1.139-6.015h-.003v-.017c0-2.853.78-5.627 2.254-8.025a15.134 15.134 0 0 1 2.034-2.61l.005-.007.011-.01v.002a15.663 15.663 0 0 1 4.158-3.02c.301-.149.608-.294.916-.424 1.901-.807 3.959-1.25 6.009-1.253l.001-.002h.011c1.214 0 2.382.136 3.525.385 1.135.248 2.248.613 3.361 1.07l.357.147v.38zm16.333 6.067v21.833h-8.447V13.733h-6.035V6.427h20.517v7.304h-6.035zm16.63-.296v5.837h.656c1.264 0 2.521 0 3.389-.378.775-.335 1.29-1.038 1.29-2.466 0-1.495-.479-2.235-1.235-2.589-.84-.395-2.095-.404-3.444-.404h-.656zm-8.447 21.557V6.427h11.773c3.138.004 5.809.744 7.708 2.33 1.923 1.602 3.043 4.048 3.045 7.437l.003-.001v.013c0 3.473-.96 5.99-2.771 7.652-1.801 1.651-4.421 2.425-7.749 2.425v-.002h-3.562v9.284h-8.447v-.572zm37.04-11.003l-2.228-6.663-2.256 6.663h4.484z" fill="#004B93"/></svg>