<svg width="390" height="60" xmlns="http://www.w3.org/2000/svg" fill="none">

 <g>
  <title>Layer 1</title>
  <path id="svg_1" fill="#004B93" d="m0.25926,7.74074l21.127,0l21.128,42l0,-42l-21.128,0l-21.127,42l0,-42z" clip-rule="evenodd" fill-rule="evenodd"/>
  <path id="svg_2" fill="#1B1918" d="m21.45826,21.47474c0.766,3.13 2.147,6.42 4.1,9.539c2.037,3.254 3.904,5.442 4.073,9.4c0.225,5.239 -2.4,9.26 -8.232,9.166c-5.845,-0.094 -8.203,-4.803 -8.17,-8.78c0.031,-3.921 2.214,-6.492 4.225,-9.723a32.95,32.95 0 0 0 4.004,-9.602z" clip-rule="evenodd" fill-rule="evenodd"/>
  <path id="svg_3" fill="#004B93" d="m71.03326,31.20074l0,5.096l0.657,0c1.431,0 2.747,-0.008 3.642,-0.37c0.775,-0.314 1.262,-0.959 1.262,-2.251l0.001,0c0,-2.475 -2.202,-2.474 -4.905,-2.474l-0.657,0l0,-0.001zm272.254,-17.034c-1.502,3.835 -7.088,18.357 -10.952,28.365l-0.299,0.774l8.973,0l0.144,-0.362l1.792,-4.502l9.275,0l1.686,4.491l0.141,0.373l13.999,0l0.297,-0.002l0.171,-0.241l5.955,-8.441l5.426,8.42l0.17,0.264l10.194,0l-0.621,-0.894l-10.169,-14.641l8.755,-12.711l0.617,-0.893l-10.392,0l-0.168,0.28l-3.791,6.408l-3.79,-6.407l-0.166,-0.28l-10.392,0l0.615,0.892l8.748,12.7l-8.14,11.077l-9.322,-24.67l-8.756,0zm-261.04,0l-19.66,0l0,29.139l11.76,0l0,-0.002c3.145,-0.002 5.83,-0.788 7.74,-2.35c1.931,-1.58 3.06,-3.934 3.063,-7.04l0.002,0l0,-0.028l-0.002,0c-0.002,-3.19 -0.972,-5.615 -2.79,-7.249c-1.803,-1.62 -4.422,-2.439 -7.741,-2.442l0,-0.002l-3.583,0l0,-2.72l11.211,0l0,-7.305l0,-0.001zm22.167,7.307l-8.106,0l0,3.536l8.231,0l0,7.304l-8.232,0l0,3.686l8.68,0l0,7.306l-17.127,0l0,-29.138l17.127,0l0,7.304l-0.573,0l0,0.002zm20.645,0l-5.633,0c-0.003,7.789 -0.062,13.297 -1.337,16.935c-1.369,3.9 -4.049,5.646 -9.331,5.646l-0.507,0l-0.061,-0.504l-0.753,-6.17l-0.077,-0.637l0.646,0c1.559,0 2.372,-0.303 2.808,-2.875c0.5,-2.947 0.537,-8.574 0.537,-19.13l0,-0.57l22.155,0l0,29.137l-8.447,0l0,-21.832zm21.167,3.497l9.395,0l0,-10.803l8.447,0l0,29.137l-8.447,0l0,-11.472l-9.395,0l0,11.473l-8.448,0l0,-29.138l8.448,0l0,10.803zm38.666,-3.497l-8.104,0l0,3.536l8.232,0l0,7.304l-8.232,0l0,3.686l8.679,0l0,7.306l-17.127,0l0,-29.138l17.127,0l0,7.304l-0.575,0l0,0.002zm17.176,12.311l0,-10.102c-1.401,0.108 -2.694,0.61 -3.667,1.367c-1.063,0.826 -1.744,1.96 -1.745,3.199l0.002,-0.001l0,0.019l-0.002,0a5.3,5.3 0 0 0 1.774,3.964l0.004,-0.001c0.966,0.876 2.247,1.434 3.635,1.555l-0.001,0zm8.448,-10.102l0,10.102c1.387,-0.12 2.666,-0.677 3.633,-1.551l0.002,-0.001c1.084,-0.98 1.776,-2.364 1.776,-3.97l-0.001,0l0,-0.019l0.001,0c-0.001,-1.237 -0.679,-2.366 -1.741,-3.192c-0.974,-0.757 -2.266,-1.26 -3.67,-1.37l0,0.001zm-8.448,19.051l0,-1.333c-3.748,-0.114 -7.2,-1.346 -9.751,-3.497c-2.7,-2.28 -4.4,-5.582 -4.401,-9.677l-0.003,0l0,-0.022l0.003,0c0.004,-3.809 1.833,-6.855 4.604,-8.947c2.596,-1.959 6.029,-3.077 9.548,-3.187l0,-1.903l8.448,0l0,1.901c3.518,0.109 6.948,1.226 9.545,3.185c2.774,2.09 4.606,5.141 4.608,8.953l0.002,0l0,0.021l-0.002,0c-0.004,4.091 -1.702,7.394 -4.399,9.672c-2.552,2.153 -6.002,3.385 -9.754,3.499l0,1.907l-8.448,0l0,-0.572zm36.332,-21.26l0,21.832l-8.446,0l0,-21.832l-6.036,0l0,-7.306l20.516,0l0,7.304l-6.034,0l0,0.002zm24.736,0l-8.105,0l0,3.536l8.232,0l0,7.304l-8.232,0l0,3.686l8.678,0l0,7.306l-17.126,0l0,-29.138l17.126,0l0,7.304l-0.573,0l0,0.002zm25.158,-6.068l0,10.457l-1.033,-1.39a6.809,6.809 0 0 0 -2.606,-2.114a7.826,7.826 0 0 0 -3.329,-0.737l0.001,0l-0.028,0l0,-0.001c-2.057,0.002 -3.782,0.789 -4.987,2.07c-1.215,1.289 -1.914,3.092 -1.915,5.113l0.003,0l0,0.024l-0.002,0c0.003,2.045 0.706,3.805 1.929,5.046c1.224,1.24 2.982,1.98 5.089,1.98l0.001,-0.002l0.007,0c1.593,0 3.187,-0.553 4.486,-1.494a7.532,7.532 0 0 0 1.365,-1.261l0.011,-0.015l0.007,-0.008l1.001,-1.122l0,10.646l-0.404,0.126l-0.146,0.045l-0.003,0c-2.395,0.74 -4.16,1.287 -6.465,1.287c-2.916,0 -5.733,-0.8 -8.203,-2.263l0.001,-0.003a16.94,16.94 0 0 1 -1.403,-0.928a17.575,17.575 0 0 1 -1.312,-1.073l0.001,-0.002l-0.011,-0.01a13.837,13.837 0 0 1 -3.555,-4.97c-0.768,-1.845 -1.138,-3.866 -1.139,-6.015l-0.003,0l0,-0.017c0,-2.853 0.78,-5.627 2.254,-8.025a15.134,15.134 0 0 1 2.034,-2.61l0.005,-0.007l0.011,-0.01l0,0.002a15.663,15.663 0 0 1 4.158,-3.02c0.301,-0.149 0.608,-0.294 0.916,-0.424c1.901,-0.807 3.959,-1.25 6.009,-1.253l0.001,-0.002l0.011,0c1.214,0 2.382,0.136 3.525,0.385c1.135,0.248 2.248,0.613 3.361,1.07l0.357,0.147l0,0.38l0,-0.002zm16.333,6.067l0,21.833l-8.447,0l0,-21.832l-6.035,0l0,-7.306l20.517,0l0,7.304l-6.035,0l0,0.001zm16.63,-0.296l0,5.837l0.656,0c1.264,0 2.521,0 3.389,-0.378c0.775,-0.335 1.29,-1.038 1.29,-2.466c0,-1.495 -0.479,-2.235 -1.235,-2.589c-0.84,-0.395 -2.095,-0.404 -3.444,-0.404l-0.656,0zm-8.447,21.557l0,-28.566l11.773,0c3.138,0.004 5.809,0.744 7.708,2.33c1.923,1.602 3.043,4.048 3.045,7.437l0.003,-0.001l0,0.013c0,3.473 -0.96,5.99 -2.771,7.652c-1.801,1.651 -4.421,2.425 -7.749,2.425l0,-0.002l-3.562,0l0,9.284l-8.447,0l0,-0.572zm37.04,-11.003l-2.228,-6.663l-2.256,6.663l4.484,0z" clip-rule="evenodd" fill-rule="evenodd"/>
 </g>
</svg>