<svg width="20" height="20" viewBox="0 0 20 20" fill="none" xmlns="http://www.w3.org/2000/svg"><path d="M15.247 12.159c-.37-.386-.817-.592-1.29-.592-.47 0-.92.202-1.306.588l-1.207 1.202c-.099-.053-.198-.103-.294-.152-.137-.07-.267-.134-.377-.203-1.13-.718-2.157-1.653-3.142-2.863-.477-.603-.798-1.11-1.031-1.626.313-.287.603-.584.886-.87.107-.108.213-.218.32-.325.802-.802.802-1.84 0-2.642L6.764 3.634c-.118-.118-.24-.24-.355-.363-.229-.236-.47-.48-.718-.71C5.321 2.195 4.878 2 4.413 2c-.466 0-.917.195-1.298.561l-.008.008-1.298 1.31a2.793 2.793 0 0 0-.828 1.774c-.092 1.115.236 2.154.488 2.833.619 1.668 1.542 3.214 2.92 4.871a17.965 17.965 0 0 0 5.983 4.684c.878.416 2.05.909 3.36.993.08.004.163.008.24.008.882 0 1.622-.317 2.202-.947.004-.008.012-.012.016-.02.198-.24.427-.457.668-.69.164-.157.332-.32.496-.493.378-.393.576-.851.576-1.32 0-.474-.202-.928-.587-1.31l-2.096-2.104zm1.366 4.02c-.003 0-.003.003 0 0-.148.16-.301.305-.465.465-.248.237-.5.485-.737.764-.386.412-.84.607-1.435.607-.058 0-.119 0-.176-.004-1.134-.073-2.188-.515-2.978-.893a16.958 16.958 0 0 1-5.634-4.414c-1.302-1.569-2.173-3.02-2.75-4.577-.354-.95-.484-1.691-.427-2.39.038-.446.21-.817.527-1.133L3.84 3.302c.187-.176.385-.271.58-.271.24 0 .435.145.558.267l.011.011c.233.218.454.443.687.684l.363.37L7.08 5.405c.405.405.405.779 0 1.184-.11.11-.218.221-.328.328-.321.328-.626.634-.958.931-.008.008-.016.012-.02.02-.328.328-.267.649-.198.866l.011.035c.271.656.653 1.275 1.233 2.011l.004.004c1.054 1.298 2.165 2.31 3.39 3.085.157.1.317.18.47.256.137.068.267.133.378.202l.045.027c.13.065.252.095.378.095a.816.816 0 0 0 .58-.263l1.306-1.306c.13-.13.336-.286.577-.286.236 0 .431.149.55.278l.007.008 2.104 2.103c.393.39.393.79.003 1.195zM10.727 5.257c1 .168 1.909.641 2.634 1.366a4.867 4.867 0 0 1 1.367 2.635c.042.252.26.427.508.427.03 0 .057-.004.087-.008a.516.516 0 0 0 .424-.595 5.887 5.887 0 0 0-1.653-3.188 5.888 5.888 0 0 0-3.188-1.653.518.518 0 0 0-.595.42.51.51 0 0 0 .416.596zM19.019 8.932a9.687 9.687 0 0 0-2.722-5.25 9.687 9.687 0 0 0-5.25-2.721.513.513 0 1 0-.167 1.015 8.674 8.674 0 0 1 4.692 2.432A8.648 8.648 0 0 1 18.003 9.1c.042.252.26.428.508.428.03 0 .057-.004.088-.008a.506.506 0 0 0 .42-.588z" fill="#333" stroke="#fff" stroke-width=".2"/></svg>