<svg width="23" height="23" viewBox="0 0 23 23" fill="none" xmlns="http://www.w3.org/2000/svg"><path d="M18.06 14.198c-.463-.482-1.022-.74-1.613-.74-.587 0-1.15.253-1.632.735l-1.508 1.504c-.125-.067-.249-.13-.368-.191-.172-.086-.334-.167-.472-.253-1.413-.897-2.696-2.066-3.928-3.58-.596-.753-.997-1.388-1.288-2.032.391-.358.754-.73 1.107-1.088.134-.134.267-.272.4-.406 1.003-1.002 1.003-2.3 0-3.302L7.457 3.542c-.148-.148-.3-.3-.444-.453a22.527 22.527 0 0 0-.897-.888C5.652 1.743 5.1 1.5 4.517 1.5c-.583 0-1.146.243-1.623.701l-.01.01-1.622 1.637c-.61.61-.959 1.355-1.035 2.219-.115 1.393.296 2.691.61 3.54.774 2.086 1.928 4.019 3.651 6.09 2.09 2.495 4.605 4.466 7.478 5.855 1.097.52 2.562 1.136 4.199 1.24.1.005.205.01.3.01 1.103 0 2.029-.396 2.754-1.183.005-.01.014-.015.02-.024.247-.3.534-.573.834-.864.205-.196.415-.4.62-.616.473-.491.721-1.064.721-1.65 0-.592-.253-1.16-.735-1.637l-2.62-2.63zm1.708 5.025c-.005 0-.005.005 0 0-.186.2-.377.382-.582.582-.31.296-.625.606-.921.955-.482.515-1.05.758-1.795.758-.071 0-.147 0-.22-.004-1.416-.091-2.733-.645-3.721-1.117-2.701-1.308-5.073-3.164-7.044-5.516-1.627-1.962-2.715-3.775-3.435-5.722-.444-1.188-.606-2.114-.535-2.987a2.19 2.19 0 0 1 .659-1.418L3.8 3.127c.234-.22.482-.339.725-.339.3 0 .544.182.697.334l.014.015c.291.272.568.553.86.854.147.153.3.305.452.463l1.303 1.303c.506.505.506.973 0 1.479-.138.138-.272.277-.41.41-.401.41-.783.792-1.198 1.165-.01.01-.019.014-.024.023-.41.41-.334.812-.248 1.084l.014.043c.34.82.816 1.594 1.542 2.514l.005.005c1.317 1.623 2.705 2.887 4.237 3.856.196.124.396.224.587.32.172.086.334.167.472.253.02.01.039.024.058.033.162.081.315.12.472.12.396 0 .644-.249.725-.33l1.632-1.632c.163-.162.42-.358.721-.358.296 0 .54.186.687.348l.01.01 2.629 2.63c.491.486.491.987.005 1.493zM12.41 5.57c1.25.21 2.385.803 3.292 1.71a6.083 6.083 0 0 1 1.708 3.292.64.64 0 0 0 .635.534.645.645 0 0 0 .64-.754 7.36 7.36 0 0 0-2.067-3.984 7.36 7.36 0 0 0-3.984-2.066.648.648 0 0 0-.745.525.637.637 0 0 0 .52.744zM22.774 10.165a12.108 12.108 0 0 0-3.403-6.561A12.108 12.108 0 0 0 12.81.2a.642.642 0 0 0-.74.525.647.647 0 0 0 .53.745 10.843 10.843 0 0 1 5.865 3.04 10.81 10.81 0 0 1 3.04 5.864.64.64 0 0 0 .634.534c.038 0 .072-.004.11-.01a.632.632 0 0 0 .525-.734z" fill="#fff"/></svg>